<svg xmlns="http://www.w3.org/2000/svg" fill="none" viewBox="0 0 62.937786 10.171573">
  <path d="M9.8787865 5.7927865l-4.086 4.086a1 1 0 01-1.414 0l-4.08600005-4.086a1 1 0 010-1.414L4.3787865.29278645a1 1 0 011.414 0l4.086 4.08600005a1 1 0 010 1.414z" fill="#4c566a"/>
  <path d="M4.7317865 1.4397865a.5.5 0 01.708 0l.453.453a.66.66 0 01.193.466v5.454a.66.66 0 01-.193.466l-.453.453a.5.5 0 01-.708 0l-3.292-3.292a.5.5 0 010-.708zm2.354 4.849v-2.406a.33.33 0 01.563-.234l1.083 1.084a.5.5 0 010 .707l-1.083 1.083a.33.33 0 01-.563-.234z" fill="#d8dee9"/>
  <path d="M14.966786 2.8197865c.162-.228.384-.417.666-.567.288-.156.615-.234.981-.234a2.157 2.157 0 011.972 1.215c.204.384.306.83.306 1.34 0 .51-.102.964-.306 1.36-.198.39-.47.693-.819.909a2.112 2.112 0 01-1.152.324c-.366 0-.69-.075-.972-.225a2.09 2.09 0 01-.675-.567v3.087h-1.26v-7.362h1.26v.72zm2.637 1.755c0-.3-.063-.558-.189-.774a1.276 1.276 0 00-1.782-.495c-.198.114-.36.282-.486.504-.12.222-.18.483-.18.783 0 .3.06.56.18.783.126.222.288.393.486.513.204.114.42.17.648.17a1.294 1.294 0 001.134-.693c.126-.221.19-.485.19-.791zm1.879 0c0-.504.099-.951.297-1.341.204-.39.477-.69.819-.9.348-.21.735-.315 1.16-.315.373 0 .697.075.973.225.282.15.507.339.675.567v-.711h1.269v4.986h-1.27v-.73a1.904 1.904 0 01-.674.586c-.282.15-.61.225-.981.225-.42 0-.804-.108-1.152-.324a2.319 2.319 0 01-.82-.91 2.999 2.999 0 01-.296-1.358zm3.924.018c0-.306-.06-.567-.18-.783a1.231 1.231 0 00-.486-.504 1.274 1.274 0 00-.657-.18c-.234 0-.45.057-.648.17-.198.115-.36.283-.486.505a1.57 1.57 0 00-.18.774c0 .3.06.564.18.792.126.222.288.393.486.513.204.12.42.18.648.18.234 0 .453-.057.657-.171a1.31 1.31 0 00.486-.504c.12-.222.18-.486.18-.792zm3.759-1.773c.162-.228.384-.417.666-.567.288-.156.615-.234.981-.234a2.157 2.157 0 011.971 1.215c.204.384.306.83.306 1.34 0 .51-.102.964-.306 1.36-.198.39-.47.693-.819.909a2.112 2.112 0 01-1.152.324c-.366 0-.69-.075-.972-.225a2.09 2.09 0 01-.675-.567v3.087h-1.26v-7.362h1.26zm2.637 1.755c0-.3-.063-.558-.189-.774a1.276 1.276 0 00-1.782-.495c-.198.114-.36.282-.486.504-.12.222-.18.483-.18.783 0 .3.06.56.18.783.126.222.288.393.486.513.204.114.42.17.648.17a1.294 1.294 0 001.134-.693c.126-.221.19-.485.19-.791zm6.838-.09c0 .18-.012.342-.036.486h-3.645c.03.36.156.642.378.846.222.204.495.306.819.306.468 0 .8-.201.999-.603h1.359c-.144.48-.42.876-.828 1.188-.408.306-.91.459-1.503.459-.48 0-.912-.105-1.296-.315a2.318 2.318 0 01-.891-.91c-.21-.39-.315-.84-.315-1.35 0-.515.105-.968.315-1.358.21-.39.504-.69.882-.9.378-.21.813-.315 1.305-.315.474 0 .897.102 1.269.306.378.204.669.495.873.873.21.372.315.8.315 1.287zm-1.305-.36c-.006-.324-.123-.582-.351-.774a1.232 1.232 0 00-.837-.297 1.15 1.15 0 00-.792.288c-.21.186-.34.447-.387.783zm3.485-1.251c.162-.264.372-.471.63-.621a1.79 1.79 0 01.9-.225v1.323h-.333c-.396 0-.696.093-.9.279-.198.186-.297.51-.297.972v2.484h-1.26v-4.986h1.26zm3.638-.045a1.81 1.81 0 01.666-.585c.288-.15.615-.225.981-.225a2.157 2.157 0 011.971 1.215c.204.384.306.83.306 1.34 0 .51-.102.964-.306 1.36-.198.39-.47.693-.819.909a2.112 2.112 0 01-1.152.324c-.372 0-.699-.072-.98-.216a1.95 1.95 0 01-.667-.576v.71h-1.26V.42578645h1.26V2.8297865zm2.637 1.746c0-.3-.063-.558-.189-.774a1.276 1.276 0 00-1.782-.495c-.198.114-.36.282-.486.504-.12.222-.18.483-.18.783 0 .3.06.56.18.783.126.222.288.393.486.513.204.114.42.17.648.17a1.294 1.294 0 001.134-.693c.126-.221.19-.485.19-.791zm1.879 0c0-.504.099-.951.297-1.341.204-.39.477-.69.819-.9.348-.21.735-.315 1.16-.315.373 0 .697.075.973.225.282.15.507.339.675.567v-.711h1.269v4.986h-1.27v-.73a1.904 1.904 0 01-.674.586c-.282.15-.61.225-.981.225-.42 0-.804-.108-1.152-.324a2.319 2.319 0 01-.82-.91 2.999 2.999 0 01-.296-1.358zm3.924.018c0-.306-.06-.567-.18-.783a1.231 1.231 0 00-.486-.504 1.274 1.274 0 00-.657-.18c-.234 0-.45.057-.648.17-.198.115-.36.283-.486.505a1.57 1.57 0 00-.18.774c0 .3.06.564.18.792.126.222.288.393.486.513.204.12.42.18.648.18.234 0 .453-.057.657-.171a1.31 1.31 0 00.486-.504c.12-.222.18-.486.18-.792zm4.407 2.573c-.407 0-.773-.071-1.097-.215a2.014 2.014 0 01-.774-.603 1.534 1.534 0 01-.306-.837h1.269a.696.696 0 00.279.477c.167.126.374.189.62.189.24 0 .427-.048.559-.144a.434.434 0 00.206-.37c0-.161-.084-.281-.252-.36-.161-.083-.422-.173-.782-.27a6.897 6.897 0 01-.919-.278 1.632 1.632 0 01-.612-.441c-.168-.198-.252-.465-.252-.801 0-.276.078-.528.235-.756.162-.228.39-.408.684-.54.3-.132.65-.198 1.052-.198.594 0 1.069.15 1.422.45.355.294.55.693.586 1.197h-1.206a.633.633 0 00-.253-.468c-.144-.12-.339-.18-.585-.18-.227 0-.404.042-.53.126a.405.405 0 00-.18.35c0 .169.084.298.252.388.167.084.428.17.782.26.36.09.657.184.892.28.233.096.434.246.602.45.175.198.264.462.27.792 0 .288-.08.546-.242.774a1.566 1.566 0 01-.684.54 2.612 2.612 0 01-1.035.189zm7.632-2.681c0 .18-.012.342-.036.486h-3.646c.03.36.156.642.378.846.222.204.495.306.819.306.468 0 .8-.201.999-.603h1.359c-.144.48-.42.876-.828 1.188-.408.306-.91.459-1.503.459-.48 0-.912-.105-1.296-.315a2.318 2.318 0 01-.891-.91c-.21-.39-.315-.84-.315-1.35 0-.515.105-.968.315-1.358.21-.39.504-.69.882-.9.378-.21.813-.315 1.305-.315.474 0 .897.102 1.269.306.378.204.669.495.873.873.21.372.315.8.315 1.287zm-1.305-.36c-.006-.324-.123-.582-.351-.774a1.232 1.232 0 00-.837-.297 1.15 1.15 0 00-.792.288c-.21.186-.34.447-.387.783z" fill="#4c566a"/>
</svg>
