<svg xmlns="http://www.w3.org/2000/svg" fill="none" viewBox="0 0 10.171715 10.171715">
  <path d="M5.0664062 0a1 1 0 00-.6796874.28515625L.28515625 4.3867188a1 1 0 000 1.3984374L4.3867188 9.8867188a1 1 0 001.3984374 0l4.1015626-4.1015626a1 1 0 000-1.3984374L5.7851562.28515625A1 1 0 005.0664062 0zm.0195313 1.2851562c.125 0 .2496094.0503907.3496094.1503907l.4609375.4609375c.12.12.1894531.2889844.1894531.4589844v5.4609374c0 .17-.0692187.3389844-.1992187.4589844l-.4511719.4609375a.5.5 0 01-.6992188 0L1.4355469 5.4355469a.5.5 0 010-.6992188l3.3007812-3.3007812c.1-.1.2246094-.1503907.3496094-.1503907zm2.3886719 2.2714844c.061875.0103125.121875.0398438.171875.0898438l1.0898437 1.0898437c.2.2.2.4992188 0 .6992188L7.6464844 6.5253906c-.2.2-.5605469.0597657-.5605469-.2402344V3.8867188c0-.225.2030469-.3610157.3886719-.3300782z" fill="#929aa9"/>
</svg>
