<svg xmlns="http://www.w3.org/2000/svg" fill="none" viewBox="0 0 10.171715 10.171715">
  <path d="M9.8858572 5.7858572l-4.1 4.1a1 1 0 01-1.4 0l-4.10000004-4.1a1 1 0 010-1.4L4.3858572.28585716a1 1 0 011.4 0l4.1 4.10000004a1 1 0 010 1.4z" fill="#d8dee9"/>
  <path d="M4.7358572 1.4358572c.2-.2.5-.2.7 0l.46.46c.12.12.19.29.19.46v5.46c0 .17-.07.34-.2.46l-.45.46a.5.5 0 01-.7 0l-3.3-3.3a.5.5 0 010-.7zm2.35 4.85v-2.4c0-.3.36-.44.56-.24l1.09 1.09c.2.2.2.5 0 .7l-1.09 1.09c-.2.2-.56.06-.56-.24z" fill="#4c566a"/>
</svg>
