<?xml version="1.0" standalone="no"?>
<!DOCTYPE svg PUBLIC "-//W3C//DTD SVG 20010904//EN"
 "http://www.w3.org/TR/2001/REC-SVG-20010904/DTD/svg10.dtd">
<svg version="1.0" xmlns="http://www.w3.org/2000/svg"
 width="700.000000pt" height="700.000000pt" viewBox="0 0 700.000000 700.000000"
 preserveAspectRatio="xMidYMid meet">
<metadata>
Created by potrace 1.11, written by Peter Selinger 2001-2013
</metadata>
<g transform="translate(0.000000,700.000000) scale(0.100000,-0.100000)"
fill="#000000" stroke="none">
<path d="M3354 6985 c-79 -17 -197 -72 -265 -123 -62 -46 -2922 -2908 -2961
-2962 -80 -113 -126 -255 -126 -393 0 -159 46 -299 138 -422 55 -72 2916
-2926 2970 -2962 125 -83 230 -116 370 -117 116 -1 161 5 235 29 53 18 158 72
197 102 12 10 683 677 1489 1483 1512 1510 1502 1500 1547 1620 32 83 44 141
48 226 6 140 -16 237 -83 369 -34 65 -140 174 -1492 1528 -801 803 -1479 1476
-1507 1497 -46 35 -194 116 -194 106 0 -2 -21 3 -47 11 -65 20 -242 25 -319 8z
m255 -889 c68 -25 123 -71 317 -268 199 -202 233 -253 254 -378 8 -45 10 -653
8 -1995 l-3 -1930 -23 -54 c-35 -83 -68 -123 -271 -329 -226 -229 -253 -246
-391 -247 -160 0 -54 -95 -1377 1228 -1323 1323 -1228 1217 -1228 1377 1 161
-95 54 1233 1381 1231 1230 1203 1204 1309 1227 51 11 119 6 172 -12z m1587
-1561 c46 -19 818 -784 863 -855 74 -116 72 -254 -4 -365 -37 -53 -791 -810
-836 -839 -84 -53 -223 -28 -289 53 -56 67 -55 52 -55 986 l1 862 24 48 c57
111 183 157 296 110z"/>
</g>
</svg>
